<?xml version="1.0" encoding="utf-8"?>
<!-- Generator: Adobe Illustrator 19.0.0, SVG Export Plug-In . SVG Version: 6.00 Build 0)  -->
<svg version="1.1" id="Слой_1" xmlns="http://www.w3.org/2000/svg" xmlns:xlink="http://www.w3.org/1999/xlink" x="0px" y="0px"
	 viewBox="0 0 56.7 56.7" style="enable-background:new 0 0 56.7 56.7;" xml:space="preserve">
<style type="text/css">
	.st0{fill:none;stroke:#000000;stroke-width:2.8346;stroke-miterlimit:22.9256;}
	.st1{fill-rule:evenodd;clip-rule:evenodd;fill:#FFFFFF;}
	.st2{fill-rule:evenodd;clip-rule:evenodd;fill:none;stroke:#000000;stroke-width:2.8346;stroke-miterlimit:22.9256;}
	.st3{fill-rule:evenodd;clip-rule:evenodd;fill:#008837;}
</style>
<line class="st0" x1="0" y1="28.3" x2="14.2" y2="28.3"/>
<line class="st0" x1="42.5" y1="21.3" x2="56.7" y2="21.3"/>
<path class="st1" d="M42.5,14.2H28.3c-7.8,0-14.1,6.4-14.1,14.1l0,0c0,7.8,6.4,14.1,14.1,14.1h0c0-7.8,6.3-14.2,14.2-14.2V14.2z"/>
<path class="st2" d="M42.5,28.3V14.2H28.3c-7.8,0-14.1,6.4-14.1,14.1l0,0c0,7.8,6.4,14.1,14.1,14.1"/>
<polygon class="st3" points="51.5,41 44,41 44,33.5 41,33.5 41,41 33.5,41 33.5,44 41,44 41,51.5 44,51.5 44,44 51.5,44 "/>
</svg>
