<?xml version="1.0" encoding="utf-8"?>
<!-- Generator: Adobe Illustrator 19.0.0, SVG Export Plug-In . SVG Version: 6.00 Build 0)  -->
<svg version="1.1" id="Слой_1" xmlns="http://www.w3.org/2000/svg" xmlns:xlink="http://www.w3.org/1999/xlink" x="0px" y="0px"
	 viewBox="0 0 56.7 56.7" style="enable-background:new 0 0 56.7 56.7;" xml:space="preserve">
<style type="text/css">
	.st0{fill:none;stroke:#000000;stroke-width:2.8346;stroke-miterlimit:22.9256;}
	.st1{fill-rule:evenodd;clip-rule:evenodd;fill:#FFFFFF;}
	.st2{fill-rule:evenodd;clip-rule:evenodd;fill:none;stroke:#000000;stroke-width:2.8346;stroke-miterlimit:22.9256;}
	.st3{fill-rule:evenodd;clip-rule:evenodd;fill:#00A0C6;}
</style>
<line class="st0" x1="0" y1="28.3" x2="14.2" y2="28.3"/>
<line class="st0" x1="42.5" y1="21.3" x2="56.7" y2="21.3"/>
<path class="st1" d="M42.5,14.2H28.3c-7.8,0-14.1,6.4-14.1,14.1l0,0c0,7.8,6.4,14.1,14.1,14.1h0c0-7.8,6.3-14.2,14.2-14.2V14.2z"/>
<path class="st2" d="M42.5,28.3V14.2H28.3c-7.8,0-14.1,6.4-14.1,14.1l0,0c0,7.8,6.4,14.1,14.1,14.1"/>
<path class="st3" d="M39.7,42.5l-4.2,4.7l-4.3-4.7H34c0-4.7,3.8-8.5,8.5-8.5c2.3,0,4.3,0.9,5.8,2.3l-1.9,2.1c-1-1-2.4-1.6-3.9-1.6
	c-3.1,0-5.7,2.5-5.7,5.7H39.7L39.7,42.5z M49.6,37.8l-4.2,4.7h2.8c0,3.1-2.5,5.7-5.7,5.7c-1.5,0-2.9-0.6-3.9-1.6l-1.9,2.1
	c1.5,1.4,3.6,2.3,5.8,2.3c4.7,0,8.5-3.8,8.5-8.5h2.8L49.6,37.8z"/>
</svg>
